<svg xmlns="http://www.w3.org/2000/svg" width="512" height="512" viewBox="0 0 512 512" role="img" aria-label="Pokopie logo">
  <defs>
    <linearGradient id="g" x1="0" y1="0" x2="1" y2="1">
      <stop offset="0" stop-color="#fb923c"/>
      <stop offset="1" stop-color="#facc15"/>
    </linearGradient>
    <filter id="s" x="-20%" y="-20%" width="140%" height="140%">
      <feDropShadow dx="0" dy="22" stdDeviation="18" flood-color="#000" flood-opacity="0.35"/>
    </filter>
  </defs>
  <rect width="512" height="512" rx="120" fill="url(#g)"/>
  <g filter="url(#s)" opacity="0.92">
    <path d="M150 286c-18-30-18-66 0-96 18-30 42-48 72-48h68c30 0 54 18 72 48 18 30 18 66 0 96-12 18-30 30-54 30-26 0-40-18-54-40h-36c-14 22-28 40-54 40-24 0-42-12-54-30z"
      fill="none" stroke="#0f172a" stroke-width="34" stroke-linecap="round" stroke-linejoin="round"/>
    <path d="M202 242h64" stroke="#0f172a" stroke-width="34" stroke-linecap="round"/>
    <path d="M234 210v64" stroke="#0f172a" stroke-width="34" stroke-linecap="round"/>
    <circle cx="330" cy="224" r="12" fill="#0f172a"/>
    <circle cx="362" cy="256" r="12" fill="#0f172a"/>
  </g>
</svg>

